<svg xmlns="http://www.w3.org/2000/svg" width="61.74" height="60.87" viewBox="0 0 61.74 60.87">
  <g id="Group_5" data-name="Group 5" transform="translate(-25.615 -27.493)">
    <path id="Path_1" data-name="Path 1" d="M33.732,48.8c5.967,0,8.092-1.993,8.092-5.447l-.8-7.428c-.077-2.092.509-3.155,1.1-3.742,1.107-1.1,2.557-.886,3.188-2.126a2.246,2.246,0,0,0,0-2.17c-1.982-2.214-18.953,5.27-19.285,14.148C26,42.609,25.019,48.8,33.732,48.8Z" transform="translate(3.706 0)" fill="#3c3c3c"/>
    <path id="Path_2" data-name="Path 2" d="M49.018,58.165c-2.07-6.476-5.79-7.683-6.41-12.166-.055-.465-.576-4.627,1.86-7.45,1.616-1.882,3.7-2.2,4.55-4.539.089-.255,1.074-2.557,0-3.354-2.435-1.793-16.738.952-21.809,11.026a15.02,15.02,0,0,0-1.594,6.709c0,5.026,9.476,10.738,17.381,12.554,1.616.365,4.76.72,6.022.376C49.892,61.077,49.339,59.184,49.018,58.165Z" transform="translate(0 26.699)" fill="#3c3c3c"/>
    <path id="Path_3" data-name="Path 3" d="M53.46,82.221c-1.461,1.594-2.79,2.524-5.048,2.524-3.853,0-4.384-3.321-4.384-5.579v-34c0-8.9-4.107-15.388-15.167-17.58V78.845c1.262,5.3,5.436,8.546,13.982,8.546,7.561,0,9.952-1.461,11.812-3.985Z" transform="translate(32.699 0.971)" fill="#3c3c3c"/>
  </g>
</svg>
