<svg id="Layer_1" data-name="Layer 1" xmlns="http://www.w3.org/2000/svg" viewBox="0 0 40 39.44"><defs><style>.cls-1{fill:#071e22;}</style></defs><g id="Group_2" data-name="Group 2"><path id="Path_1" data-name="Path 1" class="cls-1" d="M7.66,14.08c3.87,0,5.24-1.29,5.24-3.52l-.51-4.82a3,3,0,0,1,.71-2.42c.71-.71,1.65-.58,2.06-1.38a1.47,1.47,0,0,0,0-1.41C13.88-.9,2.88,4,2.67,9.7,2.65,10.08,2,14.08,7.66,14.08Z" transform="translate(0 -0.28)"/><path id="Path_2" data-name="Path 2" class="cls-1" d="M15.16,37.45c-1.34-4.19-3.75-5-4.15-7.88a6.63,6.63,0,0,1,1.2-4.83c1-1.22,2.4-1.42,2.95-2.94.06-.16.7-1.66,0-2.17C13.58,18.47,4.32,20.24,1,26.77a9.8,9.8,0,0,0-1,4.35c0,3.25,6.14,7,11.26,8.13a11.39,11.39,0,0,0,3.9.25C15.73,39.34,15.37,38.11,15.16,37.45Z" transform="translate(0 -0.28)"/><path id="Path_3" data-name="Path 3" class="cls-1" d="M39.23,36.37A4.08,4.08,0,0,1,36,38c-2.5,0-2.84-2.15-2.84-3.61v-22c0-5.76-2.66-10-9.82-11.39V34.18c.82,3.44,3.52,5.54,9.06,5.54,4.9,0,6.44-.95,7.65-2.58Z" transform="translate(0 -0.28)"/></g></svg>